<svg id="Growth_marketing"  viewBox="0 0 64 64"   data-name="Growth marketing"><path d="m59 55.5a5.5 5.5 0 0 1 -5.5 5.5h-15a5.5 5.5 0 0 1 0-11h2a4.5 4.5 0 0 1 0-9h2a3.492 3.492 0 0 1 -.5-6.95v-6.05h8v6.05a3.492 3.492 0 0 1 -.5 6.95h2a4.5 4.5 0 0 1 0 9h2a5.5 5.5 0 0 1 5.5 5.5z" fill="#dd5528"/><path d="m43 26-7 2v-4l5-4z" fill="#c6c5ca"/><path d="m49 26 7 2v-4l-5-4z" fill="#c6c5ca"/><path d="m31 48v-7.54a5.991 5.991 0 0 0 -4.28-5.74l-2.16-.65c-2.11-.64-13.01-.64-15.12 0l-2.16.65a5.991 5.991 0 0 0 -4.28 5.74v20.54h23v-8h16v-5z" fill="#365e7d"/><path d="m23.97 33.85c-.27 2.33-13.67 2.33-13.94 0a5 5 0 0 0 2.97-4.57v-5.28h8v5.28a5 5 0 0 0 2.97 4.57z" fill="#ffcbbe"/><path d="m17 29a8 8 0 0 1 -8-8v-11h16v11a8 8 0 0 1 -8 8z" fill="#ffddce"/><path d="m7 13h2a0 0 0 0 1 0 0v5a0 0 0 0 1 0 0h-2a2 2 0 0 1 -2-2v-1a2 2 0 0 1 2-2z" fill="#ffcbbe"/><path d="m27 13h2a0 0 0 0 1 0 0v5a0 0 0 0 1 0 0h-2a2 2 0 0 1 -2-2v-1a2 2 0 0 1 2-2z" fill="#ffcbbe" transform="matrix(-1 0 0 -1 54 31)"/><path d="m5 3h14a6 6 0 0 1 6 6v3a0 0 0 0 1 0 0h-12.306a7.694 7.694 0 0 1 -7.694-7.694v-1.306a0 0 0 0 1 0 0z" fill="#3e3d42"/><path d="m21 61h-8l3-22h2z" fill="#a7daf7"/><path d="m13 35h8l-3 4h-2z" fill="#fff"/><path d="m9.74 33.96 2.26 6.04 5-5-5.57-2.09-.01.01a4.757 4.757 0 0 1 -1.68 1.04z" fill="#91d1f5"/><path d="m22.57 32.91-5.57 2.09 5 5 2.26-6.04a4.757 4.757 0 0 1 -1.68-1.04z" fill="#91d1f5"/><path d="m46.357 48h-1.357v-1.5a1.5 1.5 0 0 0 -1.5-1.5 1.5 1.5 0 0 0 -1.5 1.5v6.5h4.5a2.5 2.5 0 0 0 2.487-2.758 2.6 2.6 0 0 0 -2.63-2.242z" fill="#ffddce"/><path d="m51 28h-10l-2-14.4a10 10 0 0 1 3.492-7.592l3.508-3.008 3.508 3.007a10 10 0 0 1 3.492 7.593z" fill="#8cc63e"/><circle cx="46" cy="12" fill="#57a4ff" r="3"/><path d="m46 20-2 8 2 4 2-4z" fill="#c6c5ca"/><path d="m14 19a1 1 0 0 0 1-1v-1a1 1 0 0 0 -2 0v1a1 1 0 0 0 1 1z" fill="#3e3d42"/><path d="m20 19a1 1 0 0 0 1-1v-1a1 1 0 0 0 -2 0v1a1 1 0 0 0 1 1z" fill="#3e3d42"/><g fill="#315570"><path d="m7 44h2v17h-2z"/><path d="m25 44h2v17h-2z"/></g></svg>