<svg id="Capa_1" enable-background="new 0 0 497 497"  viewBox="0 0 497 497"  ><g><path d="m148.35 6.71-60.305 81.335-81.335 60.305 22.04 100.15-22.04 100.15 81.335 60.3 60.305 81.34 100.15-19.366 100.15 19.366 60.3-81.34 81.34-60.3-22.04-100.15 22.04-100.15-141.64-141.64-99.932 9.424z" fill="#f9d888"/><path d="m289.03 231.71c-4.45-10.72-13.02-19.29-23.74-23.74-5.17-2.15-10.84-3.33-16.79-3.33s-11.62 1.18-16.79 3.33c-10.72 4.45-19.29 13.02-23.74 23.74-2.15 5.17-3.33 10.84-3.33 16.79s1.18 11.62 3.33 16.79c4.45 10.72 13.02 19.29 23.74 23.74 5.17 2.15 10.84 3.33 16.79 3.33s11.62-1.18 16.79-3.33c10.72-4.45 19.29-13.02 23.74-23.74 2.15-5.17 3.33-10.84 3.33-16.79s-1.18-11.62-3.33-16.79z" style="fill:none;stroke:#000;stroke-width:15;stroke-linecap:round;stroke-linejoin:round;stroke-miterlimit:10"/><path d="m292.36 248.5c0 5.95-1.18 11.62-3.33 16.79-4.45 10.72-13.02 19.29-23.74 23.74-5.17 2.15-10.84 3.33-16.79 3.33s-11.62-1.18-16.79-3.33c-10.72-4.45-19.29-13.02-23.74-23.74-2.15-5.17-3.33-10.84-3.33-16.79s1.18-11.62 3.33-16.79c4.45-10.72 13.02-19.29 23.74-23.74 5.17-2.15 10.84-3.33 16.79-3.33s11.62 1.18 16.79 3.33c10.72 4.45 19.29 13.02 23.74 23.74 2.15 5.17 3.33 10.84 3.33 16.79z" style="fill:none;stroke:#000;stroke-width:15;stroke-linecap:round;stroke-linejoin:round;stroke-miterlimit:10"/><path d="m348.65 490.29c-10.59 4.39-22.03 6.71-33.72 6.71h-132.86c-11.69 0-23.13-2.32-33.72-6.71l21.03-50.79h.01c3.97 1.64 8.25 2.5 12.68 2.5h132.86c4.43 0 8.71-.86 12.68-2.5z" fill="#ff748f"/><path d="m169.38 439.5-21.03 50.79c-10.59-4.38-20.33-10.83-28.59-19.1l-93.95-93.95c-8.27-8.26-14.72-18-19.1-28.59l50.79-21.04c1.64 3.97 4.07 7.61 7.2 10.74l93.95 93.95c3.13 3.13 6.77 5.56 10.73 7.2z" fill="#8cd370"/><path d="m55 182.07v132.86c0 4.43.86 8.71 2.5 12.68l-50.79 21.04c-4.39-10.59-6.71-22.03-6.71-33.72v-132.86c0-11.69 2.32-23.13 6.71-33.72l50.79 21.03v.01c-1.64 3.97-2.5 8.25-2.5 12.68z" fill="#5c586f"/><path d="m169.38 57.5c-3.96 1.64-7.6 4.07-10.73 7.2l-93.95 93.95c-3.13 3.13-5.56 6.77-7.2 10.73l-50.79-21.03c4.38-10.59 10.83-20.33 19.1-28.59l93.95-93.95c8.26-8.27 18-14.72 28.59-19.1z" fill="#ff748f"/><path d="m348.65 6.71-21.04 50.79c-3.97-1.64-8.25-2.5-12.68-2.5h-132.86c-4.43 0-8.71.86-12.68 2.5h-.01l-21.03-50.79c10.59-4.39 22.03-6.71 33.72-6.71h132.86c11.69 0 23.13 2.32 33.72 6.71z" fill="#6a647f"/><path d="m490.29 148.35-50.79 21.03c-1.64-3.96-4.07-7.6-7.2-10.73l-93.95-93.95c-3.13-3.13-6.77-5.56-10.74-7.2l21.04-50.79c10.59 4.38 20.33 10.83 28.59 19.1l93.95 93.95c8.27 8.26 14.72 18 19.1 28.59z" fill="#ff748f"/><path d="m497 182.07v132.86c0 11.69-2.32 23.13-6.71 33.72l-50.79-21.04c1.64-3.97 2.5-8.25 2.5-12.68v-132.86c0-4.43-.86-8.71-2.5-12.68v-.01l50.79-21.03c4.39 10.59 6.71 22.03 6.71 33.72z" fill="#9bd981"/><path d="m490.29 348.65c-4.38 10.59-10.83 20.33-19.1 28.59l-93.95 93.95c-8.26 8.27-18 14.72-28.59 19.1l-21.04-50.79c3.97-1.64 7.61-4.07 10.74-7.2l93.95-93.95c3.13-3.13 5.56-6.77 7.2-10.74z" fill="#6a647f"/><path d="m439.5 169.38v.01l-150.47 62.32c-4.45-10.72-13.02-19.29-23.74-23.74l62.32-150.47c3.97 1.64 7.61 4.07 10.74 7.2l93.95 93.95c3.13 3.13 5.56 6.77 7.2 10.73z" fill="#fccb88"/><path d="m327.61 439.5c-3.97 1.64-8.25 2.5-12.68 2.5h-132.86c-4.43 0-8.71-.86-12.68-2.5l62.32-150.47c5.17 2.15 10.84 3.33 16.79 3.33s11.62-1.18 16.79-3.33z" fill="#f9d888"/><path d="m442 182.07v132.86c0 4.43-.86 8.71-2.5 12.68l-150.47-62.32c2.15-5.17 3.33-10.84 3.33-16.79s-1.18-11.62-3.33-16.79l150.47-62.32c1.64 3.97 2.5 8.25 2.5 12.68z" fill="#f9d888"/><path d="m439.5 327.61c-1.64 3.97-4.07 7.61-7.2 10.74l-93.95 93.95c-3.13 3.13-6.77 5.56-10.74 7.2l-62.32-150.47c10.72-4.45 19.29-13.02 23.74-23.74z" fill="#fccb88"/><path d="m204.64 248.5c0 5.95 1.18 11.62 3.33 16.79l-150.47 62.32c-1.64-3.97-2.5-8.25-2.5-12.68v-132.86c0-4.43.86-8.71 2.5-12.68l150.47 62.32c-2.15 5.17-3.33 10.84-3.33 16.79z" fill="#f9d888"/><path d="m231.71 289.03-62.32 150.47h-.01c-3.96-1.64-7.6-4.07-10.73-7.2l-93.95-93.95c-3.13-3.13-5.56-6.77-7.2-10.74l150.47-62.32c4.45 10.72 13.02 19.29 23.74 23.74z" fill="#fccb88"/><path d="m327.61 57.5-62.32 150.47c-5.17-2.15-10.84-3.33-16.79-3.33s-11.62 1.18-16.79 3.33l-62.32-150.47c3.97-1.64 8.25-2.5 12.68-2.5h132.86c4.43 0 8.71.86 12.68 2.5z" fill="#f9d888"/><path d="m231.71 207.97c-10.72 4.45-19.29 13.02-23.74 23.74l-150.47-62.32v-.01c1.64-3.96 4.07-7.6 7.2-10.73l93.95-93.95c3.13-3.13 6.77-5.56 10.73-7.2h.01z" fill="#fccb88"/><path d="m160.603 319.606 30.072 44.712 13.871 10.908 13.216 5.222c13.318 2.941 15.741 4.163 27.62 4.738l.01-.003c1.03.046 2.066.073 3.107.073v.005c75.531 0 136.761-61.23 136.761-136.762s-61.229-136.76-136.76-136.76c-.005 0-.005 0-.011 0l-68.367 117.667zm88.115-207.859c1.477.005 2.941.059 4.394.156z" fill="#6a647f"/><path d="m111.739 248.5c0 75.531 61.23 136.761 136.761 136.761v-.005c-37.763 0-68.378-30.615-68.378-68.378s30.615-68.378 68.378-68.378 68.378-30.615 68.378-68.378-30.615-68.378-68.378-68.378l-.011-.005c-75.526.005-136.75 61.235-136.75 136.761z" fill="#fbe5c8"/><circle cx="248.5" cy="180.121" fill="#6a647f" r="24.762"/><circle cx="248.5" cy="316.879" fill="#fbe5c8" r="24.762"/><path d="m194.434 442h-12.364c-4.43 0-8.71-.86-12.68-2.5h-.01l-21.03 50.79c10.59 4.39 22.03 6.71 33.72 6.71h83.739c-25.756-15.179-49.745-33.769-71.375-55z" fill="#fd5f7e"/><path d="m176.258 422.919-6.868 16.581c3.97 1.64 8.25 2.5 12.68 2.5h12.364c-6.261-6.146-12.325-12.512-18.176-19.081z" fill="#fccb88"/><path d="m104.776 308.03-47.276 19.58c1.64 3.97 4.07 7.61 7.2 10.74l93.95 93.95c3.13 3.13 6.77 5.56 10.73 7.2h.01l6.867-16.582c-30.094-33.789-54.577-72.932-71.481-114.888z" fill="#fbc072"/><path d="m78.753 178.192-21.253-8.802c-1.64 3.97-2.5 8.25-2.5 12.68v132.86c0 4.43.86 8.71 2.5 12.68l47.276-19.58c-16.665-41.362-25.966-85.454-26.023-129.838z" fill="#fccb88"/><path d="m78.75 177.779c0-11.592.382-23.045 1.154-34.333l-15.204 15.204c-3.13 3.13-5.56 6.77-7.2 10.73v.01l21.253 8.802c0-.138-.003-.275-.003-.413z" fill="#fbc072"/><path d="m97.391 48.179-71.581 71.581c-8.27 8.26-14.72 18-19.1 28.59l50.79 21.03c1.64-3.96 4.07-7.6 7.2-10.73l15.204-15.204c2.288-33.468 8.019-65.472 17.487-95.267z" fill="#fd5f7e"/></g></svg>