<svg  viewBox="0 0 58 56"  ><g id="Page-1" fill="none" fill-rule="evenodd"><g id="053---Crying-Laughter-Elf" fill-rule="nonzero"><path id="Shape" d="m8.18 41.11c-6.3 3.45-7.33-4.07-6.21-7.37.66-1.95-.56-4.28-1.75-5.92-.27821169-.3921391-.28413684-.915684-.01487122-1.3140191s.75729132-.5879803 1.22487122-.4759809c2.25804872.4587765 4.37153409 1.4571925 6.16 2.91z" fill="#f9c795"/><path id="Shape" d="m50.41 28.94h.01v-.01c.4419277-.3666755.9098169-.7008821 1.4-1l2.59-1.27c.7011269-.2700002 1.4236577-.4807384 2.16-.63.4675799-.1119994.9556056.0776458 1.2248712.4759809s.2633405.92188-.0148712 1.3140191c-1.19 1.64-2.41 3.97-1.75 5.92 1.12 3.3.09 10.82-6.21 7.37z" fill="#f9c795"/><path id="Shape" d="m45.223 18.812c3.6810363 4.2082813 5.7307819 9.5971571 5.777 15.188.0051626 2.4191595-.3936545 4.8222019-1.18 7.11-2.9533443 8.6691709-10.9684184 14.6019059-20.1221733 14.8943752s-17.5312053-5.1165123-21.03193397-13.5794707c-3.50072864-8.4629585-1.39237552-18.2094247 5.29310727-24.4689045l14.854-1.093z" fill="#fdd7ad"/><path id="Shape" d="m49.56 18.21-.1.1c-1.54-1.73-6.72-6.14-19.7-6.3-.25-.01-.5-.01-.76-.01-14.04 0-19.28 4.89-20.62 6.49 1.19-5.46 5.04-13.07 16.71-17.74 2.5107574-1.00000679 5.3092426-1.00000679 7.82 0 11.48 4.59 15.39 12.03 16.65 17.46z" fill="#e64c3c"/><path id="Shape" d="m49.46 18.31-3.29 3.32c-3.1-1.86-8.43-3.8-17.17-3.8-10.9 0-16.5 3.02-19.08 5.14-.14.11-.27.22-.39.33-.30075481.2575651-.72516049.3134093-1.08230641.1424121-.35714593-.1709971-.57975606-.5366246-.56769359-.9324121.04078278-1.3526724.20818063-2.6985511.5-4.02 1.34-1.6 6.58-6.49 20.62-6.49.26 0 .51 0 .76.01 12.98.16 18.16 4.57 19.7 6.3z" fill="#ecf0f1"/><circle id="Oval" cx="51" cy="23" fill="#d1d4d1" r="5"/><path id="Shape" d="m43.99 39.45c.0526491 2.6990888-1.054133 5.2912888-3.04 7.12-1.985089 1.8002447-4.3929895 3.0695522-7 3.69-2.8357892.8109848-5.8218739.9479612-8.72.4-2.9118687-.5694257-5.5409978-2.1186709-7.45-4.39-1.8958413-2.3024617-2.6526213-5.336929-2.06-8.26.1822125-1.2731349.973288-2.3776553 2.12-2.96.5981862-.2079564 1.2429655-.242622 1.86-.1.56 1.89.81 3.99 2.04 5.39 1.63 1.85 3.93 1.45 5.93 1.12 4.67-.8 10.16-2.53 13.05-7.53 1.9272728 1.1943761 3.1485011 3.2558991 3.27 5.52z" fill="#802d40"/><path id="Shape" d="m14.5 30.185c-.3964712-.0003573-.7552906-.2349091-.9147035-.5979202-.159413-.363011-.0893113-.7859196.1787035-1.0780798 1.7987683-1.8875215 4.3322076-2.8952722 6.936-2.759-1.5768596-1.1021991-3.5589395-1.4544307-5.419-.963-.3431536.1000344-.7136083.0093997-.9718174-.2377629-.2582091-.2471625-.3649445-.6133031-.28-.9605s.3486638-.6227027.6918174-.7227371c3.822161-1.1293107 7.8961969.7018599 9.589 4.31.189456.3914164.1042396.8604021-.2108032 1.1601494-.3150428.2997472-.7876859.3615365-1.1691968.1528506-4.2-2.3-7.562 1.228-7.705 1.378-.1876315.2012205-.4498778.3162471-.725.318z" fill="#35495e"/><path id="Shape" d="m41.668 30.187c-.2793616-.0002747-.5458722-.1173944-.735-.323-.14-.148-3.5-3.672-7.7-1.375-.3814495.2078857-.8534828.1457177-1.1681004-.153842-.3146175-.2995597-.3998428-.7679794-.2108996-1.159158 1.6914671-3.6089584 5.7660257-5.4405549 9.588-4.31.342975.100213.6064339.3757886.6911344.7229201.0847005.3471316-.0222255.7130815-.2805.96-.2582745.2469186-.6286594.3372929-.9716344.2370799-1.8599977-.48833-3.8405944-.1359314-5.418.964 2.6049388-.1414713 5.1407822.8670904 6.937 2.759.269245.2919053.3402509.7154681.18092 1.0792197-.159331.3637516-.5188034.5987557-.91592.5987803z" fill="#35495e"/><path id="Shape" d="m40.72 33.93c-2.89 5-8.38 6.73-13.05 7.53-2 .33-4.3.73-5.93-1.12-1.23-1.4-1.48-3.5-2.04-5.39.4978165.1027384.9887637.2363294 1.47.4 1.8016897.7758616 3.7158565 1.2586232 5.67 1.43 2.3.01 4.14-1.48 6.13-2.42 2.04-.96 4.34-1.66 6.58-.96.4113913.1250281.8047111.3031986 1.17.53z" fill="#ecf0f1"/><path id="Shape" d="m42.42 44.8c-.4204181.6444818-.9136684 1.2383955-1.47 1.77-1.985089 1.8002447-4.3929895 3.0695522-7 3.69-1.3122911.3542451-2.6547788.5852467-4.01.69-.1295164-.4723356-.1934489-.9602413-.19-1.45 0-3.59 3.36-6.5 7.5-6.5 1.8800075-.0181887 3.7077915.6181772 5.17 1.8z" fill="#ff5364"/></g></g></svg>