<svg id="Capa_1" enable-background="new 0 0 512 512"  viewBox="0 0 512 512"  ><path d="m496.002 467.062c0-16.535-13.404-29.938-29.938-29.938h-421.188c-16.5 0-29.876-13.404-29.876-29.938 0-16.535 13.376-29.938 29.876-29.938h29.876v-284.446h390.687c25.429 0 46.034 20.632 46 46.061l-.437 328.199z" fill="#edfbff"/><path d="m465.439 92.802h-210.437v344.322h211.061c16.534 0 29.938 13.404 29.938 29.938h15l.437-328.199c.034-25.429-20.57-46.061-45.999-46.061z" fill="#d6f2ff"/><path d="m421.25 437.123h44.876c16.5 0 29.876 13.404 29.876 29.938 0 16.534-13.376 29.938-29.876 29.938h-44.876z" fill="#b2e7ff"/><path d="m15 422.185c-8.284 0-15-6.716-15-15v-328.323c0-24.779 20.131-44.938 44.876-44.938h29.876c8.284 0 15 6.716 15 15v328.324c0 8.284-6.716 15-15 15h-29.876c-8.203 0-14.876 6.701-14.876 14.938 0 8.284-6.716 14.999-15 14.999z" fill="#d6f2ff"/><path d="m466.126 422.123h-421.25c-8.203 0-14.876-6.701-14.876-14.938s6.673-14.938 14.876-14.938h29.876c8.284 0 15-6.716 15-15s-6.716-15-15-15h-29.876c-24.745 0-44.876 20.159-44.876 44.938s20.131 44.938 44.876 44.938h421.25c8.203 0 14.876 6.701 14.876 14.938s-6.673 14.939-14.876 14.939h-29.876c-8.284 0-15 6.716-15 15s6.716 15 15 15h29.876c24.745 0 44.876-20.159 44.876-44.939 0-24.778-20.131-44.938-44.876-44.938z" fill="#8fd4ff"/><path d="m466.126 422.123h-211.124v30h211.124c8.203 0 14.876 6.701 14.876 14.938s-6.673 14.939-14.876 14.939h-29.876c-8.284 0-15 6.716-15 15s6.716 15 15 15h29.876c24.745 0 44.876-20.159 44.876-44.939 0-24.778-20.131-44.938-44.876-44.938z" fill="#72c5fc"/><path d="m214.744 312.847c-3.918 0-7.747-1.536-10.602-4.388-3.916-3.912-5.36-9.662-3.756-14.96l20.705-68.376c11.299-37.313 31.815-71.609 59.331-99.183l24.957-25.009c81.839-82.009 184.806-100 189.149-100.726 5.027-.839 10.135.929 13.565 4.698s4.712 9.021 3.404 13.947c-1.296 4.88-32.517 120.296-100.206 188.127l-24.957 25.009c-27.52 27.577-61.751 48.139-98.995 59.463l-68.233 20.748c-1.435.438-2.905.65-4.362.65z" fill="#ffb500"/><path d="m214.744 312.847c1.457 0 2.927-.213 4.362-.649l68.233-20.748c37.244-11.324 71.475-31.887 98.995-59.463l24.957-25.009c67.689-67.832 98.911-183.248 100.207-188.128 1.308-4.925.026-10.178-3.404-13.947l-303.744 303.744c2.832 2.726 6.567 4.2 10.394 4.2z" fill="#ff7403"/><path d="m250.522 337.001h-59.883c-8.284 0-15-6.716-15-15v-60.008c0-8.284 6.716-15 15-15s15 6.716 15 15v45.008h44.883c8.284 0 15 6.716 15 15s-6.716 15-15 15z" fill="#ff9300"/><path d="m190.639 337.001h59.883c8.284 0 15-6.716 15-15s-6.716-15-15-15h-44.526l-25.776 25.776c2.698 2.611 6.368 4.224 10.419 4.224z" fill="#da5400"/><path d="m154.215 373.502c-3.834 0-7.667-1.461-10.596-4.382-5.864-5.852-5.874-15.349-.022-21.213l206.434-206.867c5.852-5.864 15.349-5.874 21.213-.022s5.874 15.349.022 21.213l-206.434 206.866c-2.929 2.936-6.773 4.405-10.617 4.405z" fill="#fff566"/><path d="m154.215 373.502c3.844 0 7.688-1.469 10.618-4.404l206.434-206.866c5.728-5.74 5.824-14.953.327-20.828l-227.839 227.838c2.911 2.835 6.683 4.26 10.46 4.26z" fill="#ffcf2c"/></svg>