<svg  viewBox="0 0 128 128"  ><g><path d="m103.041 20.833h18.459v-14.333h-76.25c-25.808 0-35 10.5-38.75 21l4.75 4c7.835-5.872 8.572-9.194 28.273-10.273l-5.443 55.463-.01-.01c-1.58 14.67-13.57 21.82-17.2 28.7s6.38 16.12 17.26 16.12c6.24 0 11.058-5.812 12.22-17.09.072-.7 6.048-61.556 8.21-83.568 1.033-.006 2.093-.009 3.19-.009h30.291c-1.909 19.44-6.762 68.875-7.481 76.2-1.685 14.345 2.8 24.44 15.443 24.44 10.37 0 20.5-6.39 21.372-23.59h-6.37s-2.193 9.245-8.585 10.12c-3.923.537-7.732-2.437-6.57-13.9z" fill="#c7e554"/><path d="m93.406 59.348a1.685 1.685 0 0 1 -.173-.009 1.75 1.75 0 0 1 -1.571-1.912l.934-9.515a1.75 1.75 0 0 1 3.484.342l-.934 9.515a1.752 1.752 0 0 1 -1.74 1.579z" fill="#97ad40"/></g></svg>