<?xml version="1.0" encoding="iso-8859-1"?>
<!-- Generator: Adobe Illustrator 19.0.0, SVG Export Plug-In . SVG Version: 6.00 Build 0)  -->
<svg version="1.1" id="Capa_1"  xmlns:xlink="http://www.w3.org/1999/xlink" x="0px" y="0px"
	 viewBox="0 0 512 512" style="enable-background:new 0 0 512 512;" xml:space="preserve">
<path style="fill:#F7F4F0;" d="M256,512c-68.38,0-132.667-26.629-181.02-74.981C26.629,388.667,0,324.38,0,256
	S26.629,123.333,74.98,74.981C123.333,26.629,187.62,0,256,0s132.667,26.629,181.02,74.981C485.371,123.333,512,187.62,512,256
	s-26.629,132.667-74.98,181.019C388.667,485.371,324.38,512,256,512z"/>
<path style="fill:#EBE5DD;" d="M437.02,74.981C388.667,26.629,324.38,0,256,0v512c68.38,0,132.667-26.629,181.02-74.981
	C485.371,388.667,512,324.38,512,256S485.371,123.333,437.02,74.981z"/>
<path style="fill:#994C0F;" d="M437.02,74.981C388.667,26.629,324.38,0,256,0c-70.692,0-128,57.308-128,128s57.308,128,128,128
	s128,57.308,128,128s-57.308,128-128,128c68.38,0,132.667-26.629,181.02-74.981C485.371,388.667,512,324.38,512,256
	S485.371,123.333,437.02,74.981z"/>
<path style="fill:#713708;" d="M437.02,74.981C388.667,26.629,324.38,0,256,0v256c70.692,0,128,57.308,128,128s-57.308,128-128,128
	c68.38,0,132.667-26.629,181.02-74.981C485.371,388.667,512,324.38,512,256S485.371,123.333,437.02,74.981z"/>
<path style="fill:#F7F4F0;" d="M256,165.5c-16.542,0-30-13.458-30-30s13.458-30,30-30s30,13.458,30,30S272.542,165.5,256,165.5z"/>
<path style="fill:#994C0F;" d="M256,406.5c-16.542,0-30-13.458-30-30s13.458-30,30-30s30,13.458,30,30S272.542,406.5,256,406.5z"/>
<path style="fill:#713708;" d="M256,346.5v60c16.542,0,30-13.458,30-30S272.542,346.5,256,346.5z"/>
<path style="fill:#EBE5DD;" d="M256,105.5v60c16.542,0,30-13.458,30-30S272.542,105.5,256,105.5z"/>
<g>
</g>
<g>
</g>
<g>
</g>
<g>
</g>
<g>
</g>
<g>
</g>
<g>
</g>
<g>
</g>
<g>
</g>
<g>
</g>
<g>
</g>
<g>
</g>
<g>
</g>
<g>
</g>
<g>
</g>
</svg>
