<svg id="Capa_1" enable-background="new 0 0 512.003 512.003"  viewBox="0 0 512.003 512.003"  ><g id="XMLID_1652_"><g id="XMLID_2728_"><path id="XMLID_558_" d="m323.939 211.017v36.192l31.477 82.813c3.132 8.24-2.954 17.064-11.769 17.064h-32.865v40.87c0 32.038-25.972 58.01-58.01 58.01h-35.964l-16.05 56.034h-170.627l13.252-54.958c7.925-32.864 3.516-67.319-11.532-97.591-14.315-28.798-22.331-63.069-21.813-93.548.293-17.248 3.277-33.79 8.547-49.237z" fill="#f2bb88"/></g><g id="XMLID_554_"><path id="XMLID_660_" d="m17.22 210.883c-4.415 14.229-6.915 29.331-7.182 45.02-.518 30.479 7.499 64.75 21.813 93.548 6.995 14.072 11.687 29.048 13.914 44.347l2.65-1.798c23.868-9.526 39.525-32.632 39.525-58.331v-19.773c0-16.695 13.534-30.229 30.229-30.229 5.19 0 10.293 1.337 14.817 3.881l23.256 13.079c10.638 5.983 23.781-1.705 23.781-13.91v-58.967s17.125-11.819 15.101-18.568l-138.07-1.967c-11.496 1.204-28.724 2.928-39.834 3.668z" fill="#98a1b3"/></g><g id="XMLID_2727_"><path id="XMLID_653_" d="m310.783 363.212 4.295-1.229c25.216-7.217 48.185-20.39 67.959-37.621 12.96-11.295 30.012-18.013 48.64-17.636 38.411.778 69.714 32.234 70.315 70.648.629 40.188-31.76 72.963-71.804 72.963-18.262 0-34.931-6.818-47.601-18.046-19.022-16.857-41.244-29.708-65.679-36.702l-6.124-1.753v-30.624z" fill="#fbc2c7"/></g><g id="XMLID_2319_"><g id="XMLID_2645_"><path id="XMLID_652_" d="m252.775 10h-169.597c-40.395 0-73.141 32.746-73.141 73.141v143.526h315.879v-143.526c0-40.395-32.747-73.141-73.141-73.141z" fill="#79b2ff"/></g><g id="XMLID_2328_"><path id="XMLID_649_" d="m178.79 10h-95.612c-40.395 0-73.141 32.746-73.141 73.141v143.526h241.894v-143.526c0-40.395-32.747-73.141-73.141-73.141z" fill="#91def5"/></g><g id="XMLID_2317_"><path id="XMLID_557_" d="m460.74 186.667h-209.09v40h209.09c11.046 0 20-8.954 20-20 0-11.046-8.954-20-20-20z" fill="#98a1b3"/></g></g><g id="XMLID_555_"><path id="XMLID_662_" d="m488.101 320.882c-15.075-15.147-35.042-23.726-56.222-24.154-20.38-.382-40.07 6.725-55.413 20.095-3.844 3.35-7.772 6.497-11.775 9.453l-30.752-80.902v-8.706h126.801c16.542 0 30-13.458 30-30s-13.458-30-30-30h-20.029c-5.522 0-10 4.478-10 10s4.478 10 10 10h20.029c5.514 0 10 4.486 10 10s-4.486 10-10 10h-199.091v-20h89.061c5.522 0 10-4.478 10-10s-4.478-10-10-10h-14.794v-93.527c0-45.844-37.297-83.141-83.142-83.141h-169.596c-45.844 0-83.141 37.297-83.141 83.141v143.526c0 2.213.728 4.251 1.945 5.907-1.165 7.637-1.822 15.396-1.954 23.159-.544 32.071 7.787 67.853 22.857 98.169 14.182 28.528 18.005 60.773 10.766 90.796l-13.252 54.958c-1.294 5.368 2.009 10.771 7.378 12.065.787.189 1.576.28 2.352.28 4.514 0 8.609-3.077 9.714-7.658l13.252-54.958c3.943-16.355 5.041-33.267 3.385-50.013 25.336-12.041 41.461-37.333 41.461-65.704v-19.773c0-11.154 9.074-20.229 20.229-20.229 3.466 0 6.896.897 9.915 2.596l23.257 13.08c8.127 4.568 17.784 4.487 25.831-.22 8.048-4.708 12.853-13.084 12.853-22.407v-50.049h123.914v10.542c0 1.214.221 2.418.652 3.553l31.478 82.813c.399 1.052.063 1.881-.289 2.392-.353.512-1.008 1.12-2.133 1.12h-32.865c-5.522 0-10 4.478-10 10v40.87c0 26.473-21.537 48.01-48.01 48.01h-35.964c-4.462 0-8.385 2.956-9.613 7.246l-16.051 56.034c-1.521 5.31 1.55 10.847 6.859 12.367.921.264 1.847.39 2.759.39 4.349 0 8.352-2.86 9.608-7.249l13.976-48.788h28.426c31.098 0 57.368-20.988 65.439-49.537 20.794 6.6 40.201 17.803 57.742 33.347 14.962 13.259 34.223 20.562 54.233 20.562 22.095 0 42.801-8.672 58.304-24.419 15.499-15.744 23.845-36.591 23.499-58.7-.331-21.184-8.815-41.191-23.889-56.337zm-235.327-300.882c34.816 0 63.142 28.325 63.142 63.141v93.526h-54.267v-93.526c0-25.244-11.324-47.88-29.142-63.141zm-232.737 63.141c0-34.816 28.325-63.141 63.141-63.141h95.331c34.815 0 63.141 28.325 63.141 63.141v133.526h-221.613zm149.987 203.575c0 3.085-2.063 4.624-2.95 5.144-.888.521-3.242 1.563-5.93.051l-23.257-13.08c-6.008-3.378-12.826-5.163-19.719-5.163-22.182 0-40.229 18.047-40.229 40.229v19.773c0 18.603-9.561 35.378-24.972 44.881-2.748-11.492-6.81-22.758-12.175-33.55-13.69-27.542-21.261-59.954-20.769-88.927.11-6.505.644-13.002 1.574-19.406h148.425v50.048zm304.215 135.171c-11.714 11.897-27.358 18.45-44.052 18.45-15.118 0-29.668-5.516-40.97-15.53-20.619-18.271-43.64-31.223-68.436-38.506v-15.578c24.795-7.567 47.935-20.618 68.824-38.822 11.587-10.1 26.465-15.492 41.868-15.177 32.855.665 60.004 27.942 60.518 60.807.263 16.708-6.042 32.461-17.752 44.356z"/><path id="XMLID_666_" d="m395.709 196.67c2.63 0 5.21-1.07 7.07-2.93 1.859-1.86 2.93-4.44 2.93-7.07 0-2.64-1.07-5.21-2.93-7.07-1.86-1.87-4.44-2.93-7.07-2.93s-5.21 1.06-7.07 2.93c-1.859 1.86-2.93 4.431-2.93 7.07 0 2.63 1.07 5.21 2.93 7.07s4.44 2.93 7.07 2.93z"/></g></g></svg>