<svg id="Layer_1" enable-background="new 0 0 512 512"  viewBox="0 0 512 512"  ><g><path d="m438.169 186.205c0-98.752-79.616-178.951-178.302-180.191-98.727-1.24-180.797 77.772-182.903 176.255-1.251 58.495 25.451 110.812 67.686 144.597v24.981c0 25.087 20.384 45.423 45.528 45.423h134.733c25.145 0 45.528-20.337 45.528-45.423v-24.981c41.287-33.026 67.73-83.759 67.73-140.661z" fill="#ffd88f"/><path d="m259.866 6.014c-7.56-.095-15.022.286-22.358 1.105 90.245 10.022 160.419 86.376 160.419 179.086 0 56.902-26.443 107.635-67.728 140.66v24.981c0 25.087-20.384 45.423-45.529 45.423h40.241c25.145 0 45.529-20.337 45.529-45.423v-24.981c41.286-33.026 67.728-83.758 67.728-140.66.001-98.752-79.616-178.951-178.302-180.191z" fill="#ffc963"/><path d="m264.327 397.111v-202.935h69.808c4.168 0 7.545-3.378 7.545-7.545 0-4.168-3.378-7.545-7.545-7.545h-153.179c-4.168 0-7.545 3.378-7.545 7.545 0 4.168 3.378 7.545 7.545 7.545h68.281v202.935z" fill="#fff7e8"/><g><g><g><path d="m276.477 506h-37.864c-16.94 0-30.673-13.733-30.673-30.673v-47.071h99.21v47.071c0 16.94-13.733 30.673-30.673 30.673z" fill="#59a1a5"/><path d="m266.909 428.256v47.071c0 16.541-13.096 30.017-29.484 30.643.395.015.79.03 1.189.03h37.863c16.94 0 30.673-13.733 30.673-30.673v-47.071z" fill="#419296"/><path d="m307.579 465.299h-100.067c-13.503 0-24.449-10.946-24.449-24.449v-43.738h148.966v43.738c-.001 13.503-10.947 24.449-24.45 24.449z" fill="#b5e8e0"/><path d="m291.787 397.111v43.738c0 13.503-10.947 24.45-24.45 24.45h40.241c13.503 0 24.45-10.946 24.45-24.45v-43.738z" fill="#97dbd1"/><path d="m342.686 421.577h-168.391c-4.168 0-7.545 3.378-7.545 7.545 0 4.168 3.378 7.545 7.545 7.545h168.391c4.168 0 7.545-3.378 7.545-7.545s-3.377-7.545-7.545-7.545z" fill="#59a1a5"/></g></g><g fill="#fff7e8"><g><path d="m51.308 187.637c0-4.168-3.378-7.545-7.545-7.545h-36.218c-4.168 0-7.545 3.378-7.545 7.545 0 4.168 3.378 7.545 7.545 7.545h36.217c4.168 0 7.546-3.378 7.546-7.545z"/><path d="m57.54 240.918c-1.078-4.025-5.215-6.418-9.241-5.335l-34.983 9.374c-4.025 1.078-6.413 5.216-5.335 9.241.903 3.371 3.951 5.594 7.283 5.594.646 0 1.304-.084 1.958-.259l34.983-9.374c4.025-1.077 6.413-5.216 5.335-9.241z"/><path d="m67.044 288.009-31.366 18.109c-3.609 2.084-4.845 6.698-2.762 10.307 1.397 2.421 3.934 3.774 6.541 3.774 1.28 0 2.578-.326 3.766-1.012l31.366-18.109c3.609-2.084 4.845-6.698 2.762-10.307-2.083-3.608-6.701-4.844-10.307-2.762z"/><path d="m13.315 130.034 34.983 9.374c.654.176 1.312.259 1.958.259 3.332 0 6.38-2.223 7.283-5.594 1.079-4.025-1.31-8.163-5.335-9.241l-34.983-9.374c-4.026-1.084-8.163 1.31-9.241 5.335s1.31 8.163 5.335 9.241z"/><path d="m74.589 73.912-31.366-18.108c-3.611-2.083-8.224-.848-10.307 2.762-2.084 3.609-.847 8.223 2.762 10.307l31.366 18.109c1.189.686 2.486 1.012 3.766 1.012 2.607 0 5.144-1.353 6.541-3.774 2.084-3.609.847-8.224-2.762-10.308z"/></g><g><path d="m504.455 180.091h-36.217c-4.168 0-7.545 3.378-7.545 7.545 0 4.168 3.378 7.545 7.545 7.545h36.217c4.168 0 7.545-3.378 7.545-7.545s-3.378-7.545-7.545-7.545z"/><path d="m498.685 244.957-34.983-9.374c-4.026-1.084-8.163 1.31-9.241 5.335-1.079 4.025 1.31 8.163 5.335 9.241l34.983 9.374c.654.176 1.312.259 1.958.259 3.332 0 6.38-2.223 7.283-5.594 1.078-4.025-1.31-8.163-5.335-9.241z"/><path d="m476.322 306.118-31.366-18.109c-3.611-2.084-8.224-.848-10.307 2.762-2.084 3.609-.847 8.223 2.762 10.307l31.366 18.109c1.189.686 2.486 1.012 3.766 1.012 2.607 0 5.144-1.353 6.541-3.774 2.084-3.609.847-8.223-2.762-10.307z"/><path d="m454.46 134.073c.903 3.371 3.951 5.594 7.283 5.594.646 0 1.304-.084 1.958-.259l34.983-9.374c4.025-1.078 6.413-5.216 5.335-9.241s-5.214-6.418-9.241-5.335l-34.983 9.374c-4.025 1.078-6.413 5.216-5.335 9.241z"/><path d="m441.19 87.993c1.28 0 2.578-.326 3.766-1.012l31.366-18.109c3.609-2.084 4.845-6.698 2.762-10.307-2.083-3.61-6.699-4.844-10.307-2.762l-31.366 18.109c-3.609 2.084-4.845 6.698-2.762 10.307 1.397 2.421 3.934 3.774 6.541 3.774z"/></g></g></g></g></svg>