<svg id="color_line"  viewBox="0 0 74 74"   data-name="color line"><path d="m39.309 51.373c3.179-8.2 9.527-16.033 9.527-16.033 4.221-4.232 6.617-4.075 7.036.839a40.065 40.065 0 0 0 -6.4 18.9z" fill="#e7aa6c"/><path d="m49.47 55.585a.507.507 0 0 1 -.171-.03l-10.161-3.712a.5.5 0 0 1 -.295-.65c3.171-8.18 9.54-16.087 9.6-16.167 2.58-2.591 4.494-3.587 5.894-3.076 1.162.423 1.825 1.793 2.029 4.187a.5.5 0 0 1 -.09.331 39.9 39.9 0 0 0 -6.311 18.644.5.5 0 0 1 -.5.472zm-9.507-4.505 9.053 3.307a41.223 41.223 0 0 1 6.342-18.339c-.177-1.807-.646-2.9-1.359-3.158-.675-.247-2.054.042-4.809 2.8a71.341 71.341 0 0 0 -9.227 15.39z" fill="#323c6b"/><path d="m51.327 46.133a.5.5 0 0 1 -.233-.058l-2.936-1.55a.5.5 0 0 1 .467-.885l2.936 1.55a.5.5 0 0 1 -.234.942z" fill="#323c6b"/><path d="m50.074 50.854a.5.5 0 0 1 -.243-.063l-2.341-1.307a.5.5 0 0 1 .487-.873l2.341 1.306a.5.5 0 0 1 -.244.937z" fill="#323c6b"/><path d="m32.682 51.115a43.1 43.1 0 0 0 -4.7-19.222c-3.711-10.165-6.446-11.726-8.106-3.822 0 0 4.791 8.826 3.912 25.728z" fill="#e7aa6c"/><path d="m23.79 54.3a.5.5 0 0 1 -.5-.526c.862-16.569-3.8-25.376-3.852-25.463a.5.5 0 0 1 -.05-.341c.755-3.593 1.732-5.312 3.075-5.408 1.768-.131 3.63 2.7 5.99 9.161a43.918 43.918 0 0 1 4.728 19.387.5.5 0 0 1 -.355.485l-8.893 2.684a.489.489 0 0 1 -.143.021zm-3.39-26.3c.661 1.307 4.585 9.769 3.918 25.116l7.853-2.37a42.871 42.871 0 0 0 -4.625-18.6c-2.883-7.874-4.457-8.626-5.016-8.584-.355.021-1.277.51-2.13 4.438z" fill="#323c6b"/><path d="m23.835 47.167a.5.5 0 0 1 -.209-.955l3.024-1.388a.5.5 0 0 1 .417.909l-3.024 1.388a.5.5 0 0 1 -.208.046z" fill="#323c6b"/><path d="m23.422 42a.5.5 0 0 1 -.173-.969l2.54-.935a.5.5 0 1 1 .346.938l-2.54.935a.5.5 0 0 1 -.173.031z" fill="#323c6b"/><path d="m63.93 16.378c-2.457 3.43-10.614 3.714-13.388 3.908-.733-2.8-3.066-10.5-.609-13.933a4.889 4.889 0 0 1 6.812-1.173 4.819 4.819 0 0 1 2 3.647 4.813 4.813 0 0 1 4.1.722 4.889 4.889 0 0 1 1.085 6.829z" fill="#fe7058"/><path d="m63.93 16.38c-2.46 3.43-10.61 3.71-13.39 3.91-.11-.41-.24-.91-.4-1.5 3.6-.29 9-1.05 10.92-3.73a4.885 4.885 0 0 0 -.56-6.39 4.776 4.776 0 0 1 2.35.88 4.893 4.893 0 0 1 1.08 6.83z" fill="#ea6453"/><g fill="#323c6b"><path d="m9.879 21.909a.5.5 0 0 1 -.3-.1l-6.409-4.892a.5.5 0 1 1 .606-.795l6.406 4.89a.5.5 0 0 1 -.3.9z"/><path d="m1.812 15.771a.5.5 0 0 1 -.3-.1l-.688-.525a.5.5 0 0 1 .606-.795l.688.525a.5.5 0 0 1 -.3.9z"/><path d="m63.262 21.217a.5.5 0 0 1 -.235-.942 8.344 8.344 0 0 0 2.936-2.442 7.389 7.389 0 0 0 1.2-2.693.5.5 0 0 1 .976.22 8.37 8.37 0 0 1 -1.361 3.055 9.332 9.332 0 0 1 -3.28 2.744.5.5 0 0 1 -.236.058z"/><path d="m67.794 13.125a.5.5 0 0 1 -.5-.448 6.964 6.964 0 0 0 -.168-.992.5.5 0 1 1 .97-.244 8.01 8.01 0 0 1 .193 1.133.5.5 0 0 1 -.446.549z"/></g><path d="m25.274 24.307 17.465-12.942s-5.563-5.114-13.189-.628a16.657 16.657 0 0 0 -4.968 4.263 10.179 10.179 0 0 0 -1.818 7.75l.333 2.064" fill="#6fc666"/><path d="m42.74 11.37-1.58 1.17a11.33 11.33 0 0 0 -10.81.87 16.4 16.4 0 0 0 -4.97 4.26 10.046 10.046 0 0 0 -1.9 7.06l-.38.09-.34-2.07a10.223 10.223 0 0 1 1.82-7.75 16.655 16.655 0 0 1 4.97-4.26c7.63-4.49 13.19.63 13.19.63z" fill="#65b54e"/><path d="m17.944 23.811-16.379-12.503s5.914-6.288 15.719 1.608a13.46 13.46 0 0 1 5.1 11.556" fill="#6fc666"/><path d="m22.38 24.47-.09-.01a13.179 13.179 0 0 0 -5.01-8.92c-6.65-5.35-11.5-4.18-13.94-2.88l-1.77-1.35s5.91-6.29 15.71 1.61a13.42 13.42 0 0 1 5.1 11.55z" fill="#65b54e"/><path d="m23.1 24.816-15.893 16.063a8.9 8.9 0 0 1 -.962-7.651 12.943 12.943 0 0 1 15.515-9.046c.057.018 1.266.618 1.34.634z" fill="#6fc666"/><path d="m8.89 33.1a9.379 9.379 0 0 0 .11 5.97l-1.79 1.81a8.894 8.894 0 0 1 -.97-7.65 13.019 13.019 0 0 1 13.18-9.42 13.075 13.075 0 0 0 -10.53 9.29z" fill="#65b54e"/><path d="m35.515 38.908-13.465-13.03a7.8 7.8 0 0 1 3.259-1.593h.014c2.11-.474 5.11-.244 8.541 2.684a14.454 14.454 0 0 1 4.449 7.007z" fill="#6fc666"/><path d="m38.31 33.98-2.8 4.93-.65-.63 1.42-1.82c-.46-2.04-2.25-6.16-4.59-8.15-3.43-2.93-6.43-3.16-8.54-2.69h-.01a8.343 8.343 0 0 0 -1.03.32l-.06-.06a7.848 7.848 0 0 1 3.26-1.6h.01c2.11-.47 5.11-.24 8.54 2.69a14.437 14.437 0 0 1 4.45 7.01z" fill="#65b54e"/><path d="m57.475 33.242 12.09-7.94s-9.777-5.912-14.924 4.764a12.013 12.013 0 0 0 -.943 2.821c-.065.323-.123.67-.163 1.029 0 0-.6-7.692-8.135-10.246a7.234 7.234 0 0 0 -7.835 1.638l9.51 5.737a8.65 8.65 0 0 0 6.46 2.871c1.412.053 2.647.277 3.94-.674z" fill="#6fc666"/><path d="m53.54 33.91c-.09 0-.17-.01-.26-.01a11.924 11.924 0 0 0 -7.71-8.21 7.242 7.242 0 0 0 -6.46.55l-1.54-.93a7.216 7.216 0 0 1 7.83-1.64c7.54 2.55 8.14 10.24 8.14 10.24z" fill="#65b54e"/><path d="m69.57 25.3-1.75 1.15c-3.11-1.12-9.28-2.11-13.01 5.63a12.293 12.293 0 0 0 -.71 1.86l-.56-.03c.04-.35.09-.7.16-1.02a11.987 11.987 0 0 1 .94-2.82c5.15-10.68 14.93-4.77 14.93-4.77z" fill="#65b54e"/><path d="m57.019 66.5h-43.008c.876-8.613 10.163-15.389 21.5-15.389s20.632 6.779 21.508 15.389z" fill="#9297ab"/><path d="m14.628 63.688a13.284 13.284 0 0 0 -.618 2.816h43.009a13.284 13.284 0 0 0 -.618-2.816z" fill="#84879c"/><path d="m57.02 66.5h-3.53c-1.11-8.43-10.29-15.01-21.46-15.01q-.63 0-1.26.03a27.146 27.146 0 0 1 4.74-.41c11.35 0 20.63 6.78 21.51 15.39z" fill="#84879c"/><path d="m50.542 20.785a.5.5 0 0 1 -.483-.374l-.178-.668c-.9-3.345-2.773-10.3-.354-13.683a5.4 5.4 0 0 1 7.51-1.289 5.3 5.3 0 0 1 2.147 3.449 5.306 5.306 0 0 1 3.954.922 5.4 5.4 0 0 1 1.2 7.527c-2.431 3.394-9.662 3.854-13.137 4.075l-.623.041zm3.406-16a4.44 4.44 0 0 0 -3.609 1.86c-2.144 2.993-.287 9.894.506 12.841l.074.276.217-.014c3.062-.195 10.233-.651 12.388-3.659a4.4 4.4 0 0 0 -.968-6.132 4.318 4.318 0 0 0 -3.673-.646.5.5 0 0 1 -.632-.453 4.308 4.308 0 0 0 -4.3-4.073z" fill="#323c6b"/><path d="m23.1 25.316a.5.5 0 0 1 -.493-.42l-.333-2.063a10.719 10.719 0 0 1 1.912-8.13 17.269 17.269 0 0 1 5.114-4.4c7.854-4.619 13.722.638 13.78.691a.5.5 0 0 1 -.041.77l-17.467 12.945a.5.5 0 1 1 -.6-.8l16.948-12.559c-1.461-1.069-6.078-3.733-12.117-.181a16.282 16.282 0 0 0 -4.821 4.131 9.713 9.713 0 0 0 -1.723 7.37l.333 2.063a.5.5 0 0 1 -.494.58z" fill="#323c6b"/><path d="m22.38 24.972h-.021a.5.5 0 0 1 -.479-.52 12.9 12.9 0 0 0 -4.91-11.146c-7.888-6.353-13.145-3.195-14.618-2.026l15.9 12.134a.5.5 0 1 1 -.606.795l-16.384-12.503a.5.5 0 0 1 -.061-.74c.063-.066 6.349-6.531 16.4 1.561a13.856 13.856 0 0 1 5.282 11.966.5.5 0 0 1 -.503.479z" fill="#323c6b"/><path d="m55 34.476c-.317 0-.632-.017-.944-.035l-.543-.027a9.117 9.117 0 0 1 -6.756-2.977l-9.453-5.7a.5.5 0 0 1 -.089-.788 7.768 7.768 0 0 1 8.346-1.749 12.456 12.456 0 0 1 7.964 8.351 12.162 12.162 0 0 1 .666-1.7c1.614-3.348 3.843-5.465 6.627-6.292 4.527-1.342 8.825 1.208 9.006 1.318a.5.5 0 0 1 .016.846l-12.079 7.93a4.386 4.386 0 0 1 -2.761.823zm-.9-1.033h.01a4.186 4.186 0 0 0 3.065-.6l.022-.015 11.373-7.47a11.019 11.019 0 0 0 -7.479-.837c-2.5.745-4.519 2.685-6 5.766a11.48 11.48 0 0 0 -.9 2.7q-.048.22-.091.456zm-15.7-8.215 8.93 5.388a.5.5 0 0 1 .1.083 7.974 7.974 0 0 0 5.523 2.682 11.625 11.625 0 0 0 -7.721-9.239 6.726 6.726 0 0 0 -6.832 1.086z" fill="#323c6b"/><path d="m53.535 33.915 13.757 13.338s4.067-12.262-8.075-13.877a11.707 11.707 0 0 0 -5.682.539z" fill="#6fc666"/><path d="m67.29 47.25-1.76-1.7v-.01c.57-3.53.57-10.7-8.52-11.91a10.735 10.735 0 0 0 -1.98-.13 11.548 11.548 0 0 1 4.19-.12c12.14 1.61 8.07 13.87 8.07 13.87z" fill="#65b54e"/><path d="m67.292 47.753a.5.5 0 0 1 -.348-.141l-13.757-13.338a.5.5 0 0 1 .176-.828 12.133 12.133 0 0 1 5.951-.56c3.595.478 6.191 1.934 7.688 4.326 2.681 4.284.845 9.959.766 10.2a.5.5 0 0 1 -.355.329.523.523 0 0 1 -.121.012zm-12.81-13.617 12.548 12.164c.385-1.656 1-5.57-.879-8.565-1.331-2.124-3.686-3.424-7-3.865a11.446 11.446 0 0 0 -4.669.266z" fill="#323c6b"/><path d="m35.515 39.408a.5.5 0 0 1 -.348-.141l-13.467-13.029a.5.5 0 0 1 .01-.728 8.264 8.264 0 0 1 3.485-1.71.492.492 0 0 1 .113-.013c1.964-.452 5.194-.342 8.88 2.8a14.976 14.976 0 0 1 4.612 7.28.5.5 0 0 1 -.053.356l-2.8 4.932a.5.5 0 0 1 -.435.253zm-12.7-13.489 12.585 12.181 2.382-4.2a14.027 14.027 0 0 0 -4.242-6.55c-2.668-2.277-5.471-3.168-8.107-2.577a.489.489 0 0 1 -.11.012 7.458 7.458 0 0 0 -2.512 1.134z" fill="#323c6b"/><path d="m53.565 33.962-18.133 5.5s.776-9.42 11.768-8.846a8.592 8.592 0 0 1 3.517.862 8.723 8.723 0 0 1 2.847 2.483" fill="#6fc666"/><path d="m53.55 33.94a8.311 8.311 0 0 0 -1.37-.93 8.524 8.524 0 0 0 -3.51-.86c-7.59-.39-10.31 3.97-11.26 6.71l-1.98.6s.78-9.42 11.77-8.84a8.531 8.531 0 0 1 3.52.86 8.923 8.923 0 0 1 2.83 2.46z" fill="#65b54e"/><path d="m35.433 39.964a.5.5 0 0 1 -.5-.541c.009-.1.952-9.881 12.292-9.3a8.962 8.962 0 0 1 3.721.917 9.206 9.206 0 0 1 3.035 2.652.5.5 0 0 1 -.272.753l-18.133 5.5a.49.49 0 0 1 -.143.019zm10.817-8.872c-7.9 0-9.777 5.588-10.2 7.663l16.679-5.061a8.845 8.845 0 0 0 -2.239-1.771 7.984 7.984 0 0 0 -3.313-.806c-.319-.017-.628-.025-.927-.025z" fill="#323c6b"/><path d="m7.207 41.379h-.032a.5.5 0 0 1 -.365-.194 9.331 9.331 0 0 1 -1.045-8.1 13.418 13.418 0 0 1 16.117-9.385 4.368 4.368 0 0 1 .652.3c.3.147.638.312.727.347a.447.447 0 0 1 .348.334.5.5 0 0 1 -.156.489l-15.891 16.061a.5.5 0 0 1 -.355.148zm11.425-17.1a12.51 12.51 0 0 0 -11.908 9.09 8.726 8.726 0 0 0 .571 6.71l14.949-15.111-.144-.068c-.238-.116-.455-.222-.515-.247a12.042 12.042 0 0 0 -2.953-.372z" fill="#323c6b"/><path d="m57.019 67h-43.008a.5.5 0 0 1 -.5-.551c.9-8.881 10.567-15.838 22-15.838s21.1 6.957 22 15.838a.5.5 0 0 1 -.5.551zm-42.442-1h41.876c-1.191-8.109-10.253-14.385-20.938-14.385s-19.748 6.276-20.938 14.385z" fill="#323c6b"/><path d="m20.124 61.369a.65.65 0 0 1 -.473-1.1l.074-.079c.2-.214.4-.428.616-.633a.65.65 0 1 1 .9.938c-.2.189-.383.387-.568.584l-.075.079a.646.646 0 0 1 -.474.211z" fill="#fff"/><path d="m23.083 58.806a.65.65 0 0 1 -.374-1.182 24.048 24.048 0 0 1 7.491-3.482.65.65 0 1 1 .344 1.254 22.742 22.742 0 0 0 -7.09 3.292.646.646 0 0 1 -.371.118z" fill="#fff"/></svg>